<?xml version="1.0" encoding="UTF-8" standalone="no"?>
<svg
   width="604"
   height="604"
   version="1.1"
   id="svg361"
   sodipodi:docname="UA_road_sign_3.18_(1991–2021).svg"
   inkscape:version="1.2.2 (732a01da63, 2022-12-09)"
   xmlns:inkscape="http://www.inkscape.org/namespaces/inkscape"
   xmlns:sodipodi="http://sodipodi.sourceforge.net/DTD/sodipodi-0.dtd"
   xmlns="http://www.w3.org/2000/svg"
   xmlns:svg="http://www.w3.org/2000/svg"
   xmlns:rdf="http://www.w3.org/1999/02/22-rdf-syntax-ns#"
   xmlns:cc="http://creativecommons.org/ns#"
   xmlns:dc="http://purl.org/dc/elements/1.1/">
  <defs
     id="defs365" />
  <sodipodi:namedview
     id="namedview363"
     pagecolor="#ffffff"
     bordercolor="#000000"
     borderopacity="0.25"
     inkscape:showpageshadow="2"
     inkscape:pageopacity="0.0"
     inkscape:pagecheckerboard="0"
     inkscape:deskcolor="#d1d1d1"
     showgrid="false"
     inkscape:zoom="0.66307947"
     inkscape:cx="518.03745"
     inkscape:cy="370.2422"
     inkscape:window-width="1920"
     inkscape:window-height="991"
     inkscape:window-x="-9"
     inkscape:window-y="-9"
     inkscape:window-maximized="1"
     inkscape:current-layer="svg361" />
  <title
     id="title351">3.29 Обмеження максимальної швидкості</title>
  <path
     d="M302 603A301 301 0 0 1 89.161 89.161 301 301 0 1 1 514.84 514.84 299.026 299.026 0 0 1 302 603z"
     style="fill:#fff;fill-rule:evenodd"
     id="path353" />
  <path
     d="M302 2a300 300 0 0 1 212.132 512.132A300 300 0 1 1 89.868 89.868 298.035 298.035 0 0 1 302 2m0-2A302 302 0 0 0 88.454 515.546 302 302 0 1 0 515.546 88.454 300.021 300.021 0 0 0 302 0z"
     id="path355" />
  <path
     d="M302 12C141.84 12 12 141.84 12 302s129.84 290 290 290 290-129.84 290-290S462.16 12 302 12zm0 530C169.45 542 62 434.55 62 302S169.45 62 302 62s240 107.45 240 240-107.45 240-240 240z"
     style="fill:#da251d"
     id="path357" />
  <metadata
     id="metadata952">
    <rdf:RDF>
      <cc:Work
         rdf:about="">
        <dc:title>3.29 Обмеження максимальної швидкості</dc:title>
      </cc:Work>
    </rdf:RDF>
  </metadata>
  <g
     id="g1170"
     style="fill:#000000"
     transform="translate(-699.38828,-2.6392)">
    <g
       style="font-style:normal;font-variant:normal;font-weight:normal;font-stretch:normal;font-size:380.188px;line-height:125%;font-family:Arial;-inkscape-font-specification:Arial;letter-spacing:-21.2903px;word-spacing:0px;fill:#000000;fill-opacity:1;stroke:none"
       id="text9499"
       transform="translate(701.38826,-447.72298)">
      <path
         d="m 266.61261,680.5078 10.64513,-34.59665 H 154.83883 v 103.78994 l 23.95152,13.30641 c 2.66122,-1.82954 6.65314,-4.82348 11.97576,-8.98183 5.3225,-4.15814 11.97569,-6.48676 19.95961,-6.98586 12.03111,0.49911 21.23469,4.82369 27.61078,12.97375 6.37586,8.15026 9.59158,17.13207 9.64715,26.94546 -0.66544,13.30646 -5.988,23.28626 -15.96768,29.93941 -9.9799,6.65324 -20.62502,9.97983 -31.93537,9.9798 -8.95021,0.103 -17.94786,-0.57816 -26.99299,-2.04348 -9.04522,-1.46526 -16.90233,-4.33247 -23.57134,-8.60164 l 5.32256,34.59665 c 0.60985,0.44355 6.04329,2.21774 16.30035,5.32256 10.25696,3.10482 21.67827,4.87901 34.26398,5.32256 25.55927,-0.55443 45.62974,-8.09472 60.21147,-22.62089 14.58144,-14.52613 22.01085,-32.71153 22.28823,-54.55625 -0.83181,-21.40103 -7.81767,-37.81225 -20.95759,-49.23369 -13.14021,-11.4212 -27.44458,-17.1873 -42.91315,-17.29832 -6.26519,-0.11075 -12.55404,0.77634 -18.86658,2.66128 -6.31269,1.88521 -11.55604,5.43358 -15.73006,10.64512 V 680.5078 Z"
         style="font-family:'Russian Road Sign';-inkscape-font-specification:'Russian Road Sign';fill:#000000"
         id="path9882" />
      <path
         d="m 387.20422,643.24987 c -21.62298,0.55465 -38.92129,10.75621 -51.89498,30.60472 -12.97377,19.84888 -19.62697,46.01812 -19.9596,78.50779 0.33263,32.48987 6.98583,58.6591 19.9596,78.50777 12.97369,19.84872 30.272,30.05029 51.89498,30.60473 21.62278,-0.55443 38.92109,-10.756 51.89496,-30.60473 12.97359,-19.84868 19.62678,-46.01791 19.95961,-78.50777 -0.33283,-30.9927 -6.98602,-56.73423 -19.95961,-77.22467 -12.97387,-20.49007 -30.27218,-31.11934 -51.89496,-31.88784 z m 0,33.07592 c 10.42324,-0.15823 18.75557,5.86133 24.99703,18.05868 6.24121,12.19768 9.44108,31.52363 9.59962,57.97791 -0.15855,26.45447 -3.35842,45.78042 -9.59963,57.97789 -6.24145,12.19756 -14.57378,18.21712 -24.99702,18.05869 -10.42344,0.15844 -18.75578,-5.86112 -24.99704,-18.05869 -6.2414,-12.19748 -9.44126,-31.52342 -9.59961,-57.97789 0.15835,-26.45427 3.35822,-45.78022 9.59962,-57.97791 6.24126,-12.19736 14.5736,-18.21692 24.99703,-18.05868 z"
         style="font-family:'Russian Road Sign';-inkscape-font-specification:'Russian Road Sign';fill:#000000"
         id="path9884" />
    </g>
  </g>
</svg>
